<mxfile host="app.diagrams.net" modified="2024-04-05T11:05:00.800Z" agent="Mozilla/5.0 (Windows NT 10.0; Win64; x64) AppleWebKit/537.36 (KHTML, like Gecko) Chrome/123.0.0.0 Safari/537.36" etag="Y40DLLujivfhUD6Sks94" version="24.2.2" type="device" pages="2">
  <diagram name="Page-1" id="HPQxPIesRymuC1zh9wQU">
    <mxGraphModel dx="1034" dy="458" grid="1" gridSize="10" guides="1" tooltips="1" connect="1" arrows="1" fold="1" page="1" pageScale="1" pageWidth="1100" pageHeight="850" math="0" shadow="0">
      <root>
        <mxCell id="0" />
        <mxCell id="1" parent="0" />
        <mxCell id="j3zuKPXsbE2sig4dOneW-67" value="" style="ellipse;whiteSpace=wrap;html=1;" parent="1" vertex="1">
          <mxGeometry x="562.5" y="760" width="135" height="70" as="geometry" />
        </mxCell>
        <mxCell id="j3zuKPXsbE2sig4dOneW-35" value="" style="ellipse;whiteSpace=wrap;html=1;" parent="1" vertex="1">
          <mxGeometry x="560" y="110" width="140" height="70" as="geometry" />
        </mxCell>
        <mxCell id="j3zuKPXsbE2sig4dOneW-36" value="" style="ellipse;whiteSpace=wrap;html=1;" parent="1" vertex="1">
          <mxGeometry x="560" y="200" width="140" height="70" as="geometry" />
        </mxCell>
        <mxCell id="j3zuKPXsbE2sig4dOneW-37" value="" style="ellipse;whiteSpace=wrap;html=1;" parent="1" vertex="1">
          <mxGeometry x="560" y="290" width="140" height="70" as="geometry" />
        </mxCell>
        <mxCell id="j3zuKPXsbE2sig4dOneW-38" value="" style="ellipse;whiteSpace=wrap;html=1;" parent="1" vertex="1">
          <mxGeometry x="560" y="390" width="140" height="70" as="geometry" />
        </mxCell>
        <mxCell id="j3zuKPXsbE2sig4dOneW-39" value="" style="ellipse;whiteSpace=wrap;html=1;" parent="1" vertex="1">
          <mxGeometry x="560" y="490" width="140" height="70" as="geometry" />
        </mxCell>
        <mxCell id="j3zuKPXsbE2sig4dOneW-40" value="" style="ellipse;whiteSpace=wrap;html=1;" parent="1" vertex="1">
          <mxGeometry x="560" y="590" width="140" height="70" as="geometry" />
        </mxCell>
        <mxCell id="j3zuKPXsbE2sig4dOneW-1" value="Actor" style="shape=umlActor;verticalLabelPosition=bottom;verticalAlign=top;html=1;outlineConnect=0;" parent="1" vertex="1">
          <mxGeometry x="290" y="290" width="40" height="60" as="geometry" />
        </mxCell>
        <mxCell id="j3zuKPXsbE2sig4dOneW-3" value="" style="swimlane;startSize=0;" parent="1" vertex="1">
          <mxGeometry x="900" y="240" width="130" height="160" as="geometry" />
        </mxCell>
        <mxCell id="j3zuKPXsbE2sig4dOneW-4" value="" style="rounded=0;whiteSpace=wrap;html=1;" parent="j3zuKPXsbE2sig4dOneW-3" vertex="1">
          <mxGeometry x="20" y="110" width="90" height="20" as="geometry" />
        </mxCell>
        <mxCell id="j3zuKPXsbE2sig4dOneW-5" value="" style="whiteSpace=wrap;html=1;aspect=fixed;" parent="j3zuKPXsbE2sig4dOneW-3" vertex="1">
          <mxGeometry x="30" y="20" width="70" height="70" as="geometry" />
        </mxCell>
        <mxCell id="j3zuKPXsbE2sig4dOneW-6" value="ATM" style="text;html=1;align=center;verticalAlign=middle;whiteSpace=wrap;rounded=0;" parent="j3zuKPXsbE2sig4dOneW-3" vertex="1">
          <mxGeometry x="25" y="40" width="80" height="30" as="geometry" />
        </mxCell>
        <mxCell id="j3zuKPXsbE2sig4dOneW-8" value="insert card" style="text;html=1;align=center;verticalAlign=middle;whiteSpace=wrap;rounded=0;" parent="1" vertex="1">
          <mxGeometry x="600" y="135" width="60" height="20" as="geometry" />
        </mxCell>
        <mxCell id="j3zuKPXsbE2sig4dOneW-44" value="select language" style="text;html=1;align=center;verticalAlign=middle;whiteSpace=wrap;rounded=0;" parent="1" vertex="1">
          <mxGeometry x="600" y="220" width="60" height="30" as="geometry" />
        </mxCell>
        <mxCell id="j3zuKPXsbE2sig4dOneW-45" value="select account&lt;div&gt;type&lt;/div&gt;" style="text;html=1;align=center;verticalAlign=middle;resizable=0;points=[];autosize=1;strokeColor=none;fillColor=none;" parent="1" vertex="1">
          <mxGeometry x="580" y="310" width="100" height="40" as="geometry" />
        </mxCell>
        <mxCell id="j3zuKPXsbE2sig4dOneW-46" value="select withdrawal" style="text;html=1;align=center;verticalAlign=middle;resizable=0;points=[];autosize=1;strokeColor=none;fillColor=none;" parent="1" vertex="1">
          <mxGeometry x="575" y="410" width="110" height="30" as="geometry" />
        </mxCell>
        <mxCell id="j3zuKPXsbE2sig4dOneW-47" value="Enter amount" style="text;html=1;align=center;verticalAlign=middle;resizable=0;points=[];autosize=1;strokeColor=none;fillColor=none;" parent="1" vertex="1">
          <mxGeometry x="580" y="510" width="100" height="30" as="geometry" />
        </mxCell>
        <mxCell id="j3zuKPXsbE2sig4dOneW-48" value="Enter Pin" style="text;html=1;align=center;verticalAlign=middle;resizable=0;points=[];autosize=1;strokeColor=none;fillColor=none;" parent="1" vertex="1">
          <mxGeometry x="595" y="610" width="70" height="30" as="geometry" />
        </mxCell>
        <mxCell id="j3zuKPXsbE2sig4dOneW-49" value="" style="ellipse;whiteSpace=wrap;html=1;" parent="1" vertex="1">
          <mxGeometry x="560" y="680" width="140" height="70" as="geometry" />
        </mxCell>
        <mxCell id="j3zuKPXsbE2sig4dOneW-50" value="collect the cash" style="text;html=1;align=center;verticalAlign=middle;resizable=0;points=[];autosize=1;strokeColor=none;fillColor=none;" parent="1" vertex="1">
          <mxGeometry x="575" y="700" width="110" height="30" as="geometry" />
        </mxCell>
        <mxCell id="j3zuKPXsbE2sig4dOneW-52" value="" style="edgeStyle=none;orthogonalLoop=1;jettySize=auto;html=1;rounded=0;elbow=vertical;" parent="1" source="j3zuKPXsbE2sig4dOneW-1" edge="1">
          <mxGeometry width="100" relative="1" as="geometry">
            <mxPoint x="290" y="300" as="sourcePoint" />
            <mxPoint x="550" y="160" as="targetPoint" />
            <Array as="points" />
          </mxGeometry>
        </mxCell>
        <mxCell id="j3zuKPXsbE2sig4dOneW-54" value="" style="edgeStyle=none;orthogonalLoop=1;jettySize=auto;html=1;rounded=0;elbow=vertical;" parent="1" edge="1">
          <mxGeometry width="100" relative="1" as="geometry">
            <mxPoint x="340" y="310" as="sourcePoint" />
            <mxPoint x="550" y="240" as="targetPoint" />
            <Array as="points" />
          </mxGeometry>
        </mxCell>
        <mxCell id="j3zuKPXsbE2sig4dOneW-55" value="" style="edgeStyle=none;orthogonalLoop=1;jettySize=auto;html=1;rounded=0;elbow=vertical;" parent="1" edge="1">
          <mxGeometry width="100" relative="1" as="geometry">
            <mxPoint x="340" y="320" as="sourcePoint" />
            <mxPoint x="550" y="310" as="targetPoint" />
            <Array as="points" />
          </mxGeometry>
        </mxCell>
        <mxCell id="j3zuKPXsbE2sig4dOneW-56" value="" style="edgeStyle=none;orthogonalLoop=1;jettySize=auto;html=1;rounded=0;elbow=vertical;" parent="1" edge="1">
          <mxGeometry width="100" relative="1" as="geometry">
            <mxPoint x="340" y="330" as="sourcePoint" />
            <mxPoint x="550" y="390" as="targetPoint" />
            <Array as="points" />
          </mxGeometry>
        </mxCell>
        <mxCell id="j3zuKPXsbE2sig4dOneW-57" value="" style="endArrow=classic;html=1;rounded=0;elbow=vertical;" parent="1" target="j3zuKPXsbE2sig4dOneW-39" edge="1">
          <mxGeometry width="50" height="50" relative="1" as="geometry">
            <mxPoint x="340" y="340" as="sourcePoint" />
            <mxPoint x="550" y="490" as="targetPoint" />
          </mxGeometry>
        </mxCell>
        <mxCell id="j3zuKPXsbE2sig4dOneW-58" value="" style="edgeStyle=none;orthogonalLoop=1;jettySize=auto;html=1;rounded=0;elbow=vertical;" parent="1" edge="1">
          <mxGeometry width="100" relative="1" as="geometry">
            <mxPoint x="340" y="350" as="sourcePoint" />
            <mxPoint x="550" y="600" as="targetPoint" />
            <Array as="points" />
          </mxGeometry>
        </mxCell>
        <mxCell id="j3zuKPXsbE2sig4dOneW-59" value="" style="endArrow=classic;html=1;rounded=0;elbow=vertical;" parent="1" edge="1">
          <mxGeometry width="50" height="50" relative="1" as="geometry">
            <mxPoint x="710" y="150" as="sourcePoint" />
            <mxPoint x="890" y="290" as="targetPoint" />
          </mxGeometry>
        </mxCell>
        <mxCell id="j3zuKPXsbE2sig4dOneW-60" value="" style="edgeStyle=none;orthogonalLoop=1;jettySize=auto;html=1;rounded=0;elbow=vertical;" parent="1" edge="1">
          <mxGeometry width="100" relative="1" as="geometry">
            <mxPoint x="710" y="230" as="sourcePoint" />
            <mxPoint x="890" y="300" as="targetPoint" />
            <Array as="points" />
          </mxGeometry>
        </mxCell>
        <mxCell id="j3zuKPXsbE2sig4dOneW-61" value="" style="edgeStyle=none;orthogonalLoop=1;jettySize=auto;html=1;rounded=0;elbow=vertical;" parent="1" edge="1">
          <mxGeometry width="100" relative="1" as="geometry">
            <mxPoint x="710" y="320" as="sourcePoint" />
            <mxPoint x="890" y="320" as="targetPoint" />
            <Array as="points" />
          </mxGeometry>
        </mxCell>
        <mxCell id="j3zuKPXsbE2sig4dOneW-62" value="" style="edgeStyle=none;orthogonalLoop=1;jettySize=auto;html=1;rounded=0;elbow=vertical;" parent="1" edge="1">
          <mxGeometry width="100" relative="1" as="geometry">
            <mxPoint x="710" y="430" as="sourcePoint" />
            <mxPoint x="890" y="330" as="targetPoint" />
            <Array as="points" />
          </mxGeometry>
        </mxCell>
        <mxCell id="j3zuKPXsbE2sig4dOneW-63" value="" style="edgeStyle=none;orthogonalLoop=1;jettySize=auto;html=1;rounded=0;elbow=vertical;" parent="1" edge="1">
          <mxGeometry width="100" relative="1" as="geometry">
            <mxPoint x="710" y="520" as="sourcePoint" />
            <mxPoint x="890" y="350" as="targetPoint" />
            <Array as="points" />
          </mxGeometry>
        </mxCell>
        <mxCell id="j3zuKPXsbE2sig4dOneW-64" value="" style="edgeStyle=none;orthogonalLoop=1;jettySize=auto;html=1;rounded=0;elbow=vertical;" parent="1" edge="1">
          <mxGeometry width="100" relative="1" as="geometry">
            <mxPoint x="720" y="610" as="sourcePoint" />
            <mxPoint x="890" y="370" as="targetPoint" />
            <Array as="points" />
          </mxGeometry>
        </mxCell>
        <mxCell id="j3zuKPXsbE2sig4dOneW-65" value="" style="edgeStyle=none;orthogonalLoop=1;jettySize=auto;html=1;rounded=0;elbow=vertical;exitX=0.333;exitY=1.029;exitDx=0;exitDy=0;exitPerimeter=0;" parent="1" source="j3zuKPXsbE2sig4dOneW-3" edge="1">
          <mxGeometry width="100" relative="1" as="geometry">
            <mxPoint x="790" y="580" as="sourcePoint" />
            <mxPoint x="710" y="700" as="targetPoint" />
            <Array as="points" />
          </mxGeometry>
        </mxCell>
        <mxCell id="j3zuKPXsbE2sig4dOneW-66" value="" style="edgeStyle=none;orthogonalLoop=1;jettySize=auto;html=1;rounded=0;elbow=vertical;" parent="1" edge="1">
          <mxGeometry width="100" relative="1" as="geometry">
            <mxPoint x="550" y="710" as="sourcePoint" />
            <mxPoint x="330" y="360" as="targetPoint" />
            <Array as="points" />
          </mxGeometry>
        </mxCell>
        <mxCell id="j3zuKPXsbE2sig4dOneW-68" value="collect receipt" style="text;html=1;align=center;verticalAlign=middle;resizable=0;points=[];autosize=1;strokeColor=none;fillColor=none;" parent="1" vertex="1">
          <mxGeometry x="580" y="780" width="100" height="30" as="geometry" />
        </mxCell>
        <mxCell id="j3zuKPXsbE2sig4dOneW-69" value="" style="edgeStyle=none;orthogonalLoop=1;jettySize=auto;html=1;rounded=0;elbow=vertical;" parent="1" edge="1">
          <mxGeometry width="100" relative="1" as="geometry">
            <mxPoint x="950" y="410" as="sourcePoint" />
            <mxPoint x="710" y="770" as="targetPoint" />
            <Array as="points" />
          </mxGeometry>
        </mxCell>
        <mxCell id="j3zuKPXsbE2sig4dOneW-70" value="" style="edgeStyle=none;orthogonalLoop=1;jettySize=auto;html=1;rounded=0;elbow=vertical;" parent="1" edge="1">
          <mxGeometry width="100" relative="1" as="geometry">
            <mxPoint x="550" y="790" as="sourcePoint" />
            <mxPoint x="320" y="380" as="targetPoint" />
            <Array as="points" />
          </mxGeometry>
        </mxCell>
      </root>
    </mxGraphModel>
  </diagram>
  <diagram id="9ltkrNP3JiCV5Y3-gF9B" name="Page-2">
    <mxGraphModel dx="1246" dy="661" grid="1" gridSize="10" guides="1" tooltips="1" connect="1" arrows="1" fold="1" page="1" pageScale="1" pageWidth="1100" pageHeight="850" math="0" shadow="0">
      <root>
        <mxCell id="0" />
        <mxCell id="1" parent="0" />
        <mxCell id="z_X0r_UcDrxjalss_dkO-13" value="Restaurant" style="whiteSpace=wrap;html=1;aspect=fixed;" vertex="1" parent="1">
          <mxGeometry x="720" y="390" width="80" height="80" as="geometry" />
        </mxCell>
        <mxCell id="NBURtu0gtJk6Xqq7PXZP-7" value="" style="whiteSpace=wrap;html=1;aspect=fixed;" vertex="1" parent="1">
          <mxGeometry x="485" y="390" width="80" height="80" as="geometry" />
        </mxCell>
        <mxCell id="NBURtu0gtJk6Xqq7PXZP-3" value="" style="whiteSpace=wrap;html=1;aspect=fixed;" vertex="1" parent="1">
          <mxGeometry x="270" y="390" width="80" height="80" as="geometry" />
        </mxCell>
        <mxCell id="T2fHyv0IfCqDmTKbyvzC-1" value="" style="rounded=0;whiteSpace=wrap;html=1;" parent="1" vertex="1">
          <mxGeometry x="70" y="520" width="10" height="600" as="geometry" />
        </mxCell>
        <mxCell id="T2fHyv0IfCqDmTKbyvzC-2" value="" style="rounded=0;whiteSpace=wrap;html=1;" parent="1" vertex="1">
          <mxGeometry x="310" y="520" width="10" height="600" as="geometry" />
        </mxCell>
        <mxCell id="T2fHyv0IfCqDmTKbyvzC-3" value="" style="endArrow=classic;html=1;rounded=0;elbow=vertical;entryX=-0.4;entryY=0.065;entryDx=0;entryDy=0;entryPerimeter=0;" parent="1" target="T2fHyv0IfCqDmTKbyvzC-2" edge="1">
          <mxGeometry width="50" height="50" relative="1" as="geometry">
            <mxPoint x="80" y="560" as="sourcePoint" />
            <mxPoint x="220" y="660" as="targetPoint" />
          </mxGeometry>
        </mxCell>
        <mxCell id="T2fHyv0IfCqDmTKbyvzC-4" value="" style="endArrow=classic;html=1;rounded=0;elbow=vertical;entryX=-0.4;entryY=0.167;entryDx=0;entryDy=0;entryPerimeter=0;exitX=0.867;exitY=0.167;exitDx=0;exitDy=0;exitPerimeter=0;" parent="1" source="T2fHyv0IfCqDmTKbyvzC-1" target="T2fHyv0IfCqDmTKbyvzC-2" edge="1">
          <mxGeometry width="50" height="50" relative="1" as="geometry">
            <mxPoint x="90" y="620" as="sourcePoint" />
            <mxPoint x="220" y="660" as="targetPoint" />
          </mxGeometry>
        </mxCell>
        <mxCell id="T2fHyv0IfCqDmTKbyvzC-5" value="" style="endArrow=classic;html=1;rounded=0;elbow=vertical;exitX=1;exitY=0.065;exitDx=0;exitDy=0;exitPerimeter=0;" parent="1" source="T2fHyv0IfCqDmTKbyvzC-2" edge="1">
          <mxGeometry width="50" height="50" relative="1" as="geometry">
            <mxPoint x="170" y="700" as="sourcePoint" />
            <mxPoint x="520" y="560" as="targetPoint" />
          </mxGeometry>
        </mxCell>
        <mxCell id="T2fHyv0IfCqDmTKbyvzC-6" value="" style="endArrow=classic;html=1;rounded=0;elbow=vertical;" parent="1" edge="1">
          <mxGeometry width="50" height="50" relative="1" as="geometry">
            <mxPoint x="520" y="600" as="sourcePoint" />
            <mxPoint x="320" y="600" as="targetPoint" />
          </mxGeometry>
        </mxCell>
        <mxCell id="T2fHyv0IfCqDmTKbyvzC-7" value="" style="endArrow=classic;html=1;rounded=0;elbow=vertical;exitX=0;exitY=0.233;exitDx=0;exitDy=0;exitPerimeter=0;entryX=1;entryY=0.233;entryDx=0;entryDy=0;entryPerimeter=0;" parent="1" source="NBURtu0gtJk6Xqq7PXZP-4" target="T2fHyv0IfCqDmTKbyvzC-2" edge="1">
          <mxGeometry width="50" height="50" relative="1" as="geometry">
            <mxPoint x="270" y="780" as="sourcePoint" />
            <mxPoint x="320" y="730" as="targetPoint" />
          </mxGeometry>
        </mxCell>
        <mxCell id="T2fHyv0IfCqDmTKbyvzC-8" value="" style="endArrow=classic;html=1;rounded=0;elbow=vertical;entryX=0;entryY=0.3;entryDx=0;entryDy=0;entryPerimeter=0;" parent="1" target="T2fHyv0IfCqDmTKbyvzC-2" edge="1">
          <mxGeometry width="50" height="50" relative="1" as="geometry">
            <mxPoint x="81" y="700" as="sourcePoint" />
            <mxPoint x="250" y="660" as="targetPoint" />
          </mxGeometry>
        </mxCell>
        <mxCell id="NBURtu0gtJk6Xqq7PXZP-2" value="Actor" style="shape=umlActor;verticalLabelPosition=bottom;verticalAlign=top;html=1;outlineConnect=0;" vertex="1" parent="1">
          <mxGeometry x="60" y="400" width="30" height="60" as="geometry" />
        </mxCell>
        <mxCell id="NBURtu0gtJk6Xqq7PXZP-4" value="" style="rounded=0;whiteSpace=wrap;html=1;" vertex="1" parent="1">
          <mxGeometry x="520" y="520" width="10" height="600" as="geometry" />
        </mxCell>
        <mxCell id="NBURtu0gtJk6Xqq7PXZP-5" value="zomato app" style="text;html=1;align=center;verticalAlign=middle;resizable=0;points=[];autosize=1;strokeColor=none;fillColor=none;" vertex="1" parent="1">
          <mxGeometry x="265" y="415" width="90" height="30" as="geometry" />
        </mxCell>
        <mxCell id="NBURtu0gtJk6Xqq7PXZP-8" value="Server" style="text;html=1;align=center;verticalAlign=middle;resizable=0;points=[];autosize=1;strokeColor=none;fillColor=none;" vertex="1" parent="1">
          <mxGeometry x="495" y="415" width="60" height="30" as="geometry" />
        </mxCell>
        <mxCell id="NBURtu0gtJk6Xqq7PXZP-9" value="Customer" style="text;html=1;align=center;verticalAlign=middle;resizable=0;points=[];autosize=1;strokeColor=none;fillColor=none;" vertex="1" parent="1">
          <mxGeometry x="35" y="370" width="80" height="30" as="geometry" />
        </mxCell>
        <mxCell id="NBURtu0gtJk6Xqq7PXZP-10" value="Open App/Register" style="text;html=1;align=center;verticalAlign=middle;resizable=0;points=[];autosize=1;strokeColor=none;fillColor=none;" vertex="1" parent="1">
          <mxGeometry x="120" y="528" width="120" height="30" as="geometry" />
        </mxCell>
        <mxCell id="NBURtu0gtJk6Xqq7PXZP-12" value="connects to the server" style="text;html=1;align=center;verticalAlign=middle;resizable=0;points=[];autosize=1;strokeColor=none;fillColor=none;" vertex="1" parent="1">
          <mxGeometry x="350" y="528" width="140" height="30" as="geometry" />
        </mxCell>
        <mxCell id="NBURtu0gtJk6Xqq7PXZP-13" value="Displays the Restaurants &amp;amp; Foods" style="text;html=1;align=center;verticalAlign=middle;resizable=0;points=[];autosize=1;strokeColor=none;fillColor=none;" vertex="1" parent="1">
          <mxGeometry x="320" y="578" width="200" height="30" as="geometry" />
        </mxCell>
        <mxCell id="NBURtu0gtJk6Xqq7PXZP-15" value="Select restaurant of choice" style="text;html=1;align=center;verticalAlign=middle;resizable=0;points=[];autosize=1;strokeColor=none;fillColor=none;" vertex="1" parent="1">
          <mxGeometry x="110" y="600" width="170" height="30" as="geometry" />
        </mxCell>
        <mxCell id="NBURtu0gtJk6Xqq7PXZP-16" value="Displays the menu" style="text;html=1;align=center;verticalAlign=middle;resizable=0;points=[];autosize=1;strokeColor=none;fillColor=none;" vertex="1" parent="1">
          <mxGeometry x="360" y="630" width="120" height="30" as="geometry" />
        </mxCell>
        <mxCell id="NBURtu0gtJk6Xqq7PXZP-17" value="Select what u want to eat" style="text;html=1;align=center;verticalAlign=middle;resizable=0;points=[];autosize=1;strokeColor=none;fillColor=none;" vertex="1" parent="1">
          <mxGeometry x="120" y="670" width="160" height="30" as="geometry" />
        </mxCell>
        <mxCell id="NBURtu0gtJk6Xqq7PXZP-18" value="" style="endArrow=classic;html=1;rounded=0;exitX=1;exitY=0.434;exitDx=0;exitDy=0;exitPerimeter=0;entryX=-0.4;entryY=0.432;entryDx=0;entryDy=0;entryPerimeter=0;" edge="1" parent="1" source="T2fHyv0IfCqDmTKbyvzC-1" target="T2fHyv0IfCqDmTKbyvzC-2">
          <mxGeometry width="50" height="50" relative="1" as="geometry">
            <mxPoint x="140" y="830" as="sourcePoint" />
            <mxPoint x="190" y="780" as="targetPoint" />
          </mxGeometry>
        </mxCell>
        <mxCell id="NBURtu0gtJk6Xqq7PXZP-19" value="" style="endArrow=classic;html=1;rounded=0;entryX=1.067;entryY=0.347;entryDx=0;entryDy=0;entryPerimeter=0;exitX=-0.2;exitY=0.348;exitDx=0;exitDy=0;exitPerimeter=0;" edge="1" parent="1" source="NBURtu0gtJk6Xqq7PXZP-4" target="T2fHyv0IfCqDmTKbyvzC-2">
          <mxGeometry width="50" height="50" relative="1" as="geometry">
            <mxPoint x="510" y="730" as="sourcePoint" />
            <mxPoint x="500" y="710" as="targetPoint" />
          </mxGeometry>
        </mxCell>
        <mxCell id="NBURtu0gtJk6Xqq7PXZP-20" value="Adds it to the cart" style="text;html=1;align=center;verticalAlign=middle;resizable=0;points=[];autosize=1;strokeColor=none;fillColor=none;" vertex="1" parent="1">
          <mxGeometry x="350" y="708" width="120" height="30" as="geometry" />
        </mxCell>
        <mxCell id="NBURtu0gtJk6Xqq7PXZP-22" value="Place order" style="text;html=1;align=center;verticalAlign=middle;resizable=0;points=[];autosize=1;strokeColor=none;fillColor=none;" vertex="1" parent="1">
          <mxGeometry x="150" y="748" width="80" height="30" as="geometry" />
        </mxCell>
        <mxCell id="NBURtu0gtJk6Xqq7PXZP-23" value="" style="endArrow=classic;html=1;rounded=0;entryX=1.2;entryY=0.467;entryDx=0;entryDy=0;entryPerimeter=0;" edge="1" parent="1" target="T2fHyv0IfCqDmTKbyvzC-2">
          <mxGeometry width="50" height="50" relative="1" as="geometry">
            <mxPoint x="530" y="800" as="sourcePoint" />
            <mxPoint x="510" y="730" as="targetPoint" />
          </mxGeometry>
        </mxCell>
        <mxCell id="NBURtu0gtJk6Xqq7PXZP-25" value="sends the bill" style="text;html=1;align=center;verticalAlign=middle;resizable=0;points=[];autosize=1;strokeColor=none;fillColor=none;" vertex="1" parent="1">
          <mxGeometry x="365" y="770" width="90" height="30" as="geometry" />
        </mxCell>
        <mxCell id="NBURtu0gtJk6Xqq7PXZP-26" value="" style="endArrow=classic;html=1;rounded=0;exitX=1.133;exitY=0.533;exitDx=0;exitDy=0;exitPerimeter=0;entryX=-0.133;entryY=0.534;entryDx=0;entryDy=0;entryPerimeter=0;" edge="1" parent="1" source="T2fHyv0IfCqDmTKbyvzC-1" target="T2fHyv0IfCqDmTKbyvzC-2">
          <mxGeometry width="50" height="50" relative="1" as="geometry">
            <mxPoint x="100" y="860" as="sourcePoint" />
            <mxPoint x="150" y="810" as="targetPoint" />
          </mxGeometry>
        </mxCell>
        <mxCell id="z_X0r_UcDrxjalss_dkO-1" value="Pay the amount" style="text;html=1;align=center;verticalAlign=middle;resizable=0;points=[];autosize=1;strokeColor=none;fillColor=none;" vertex="1" parent="1">
          <mxGeometry x="145" y="818" width="110" height="30" as="geometry" />
        </mxCell>
        <mxCell id="z_X0r_UcDrxjalss_dkO-2" value="" style="endArrow=classic;html=1;rounded=0;entryX=-0.133;entryY=0.633;entryDx=0;entryDy=0;entryPerimeter=0;" edge="1" parent="1" target="NBURtu0gtJk6Xqq7PXZP-4">
          <mxGeometry width="50" height="50" relative="1" as="geometry">
            <mxPoint x="325" y="900" as="sourcePoint" />
            <mxPoint x="520" y="720" as="targetPoint" />
          </mxGeometry>
        </mxCell>
        <mxCell id="z_X0r_UcDrxjalss_dkO-3" value="Assigns a delivery partner &lt;br&gt;to collect food" style="text;html=1;align=center;verticalAlign=middle;resizable=0;points=[];autosize=1;strokeColor=none;fillColor=none;" vertex="1" parent="1">
          <mxGeometry x="340" y="860" width="160" height="40" as="geometry" />
        </mxCell>
        <mxCell id="z_X0r_UcDrxjalss_dkO-4" value="" style="endArrow=classic;html=1;rounded=0;exitX=-0.133;exitY=0.788;exitDx=0;exitDy=0;exitPerimeter=0;entryX=1.4;entryY=0.716;entryDx=0;entryDy=0;entryPerimeter=0;" edge="1" parent="1" source="NBURtu0gtJk6Xqq7PXZP-4">
          <mxGeometry width="50" height="50" relative="1" as="geometry">
            <mxPoint x="516.67" y="990.0000000000001" as="sourcePoint" />
            <mxPoint x="323.34" y="991.1999999999999" as="targetPoint" />
          </mxGeometry>
        </mxCell>
        <mxCell id="z_X0r_UcDrxjalss_dkO-5" value="Food Delivered&lt;div&gt;&lt;br&gt;&lt;/div&gt;" style="text;html=1;align=center;verticalAlign=middle;resizable=0;points=[];autosize=1;strokeColor=none;fillColor=none;" vertex="1" parent="1">
          <mxGeometry x="370" y="963" width="100" height="40" as="geometry" />
        </mxCell>
        <mxCell id="z_X0r_UcDrxjalss_dkO-6" value="" style="endArrow=classic;html=1;rounded=0;exitX=0.067;exitY=0.801;exitDx=0;exitDy=0;exitPerimeter=0;entryX=1.133;entryY=0.8;entryDx=0;entryDy=0;entryPerimeter=0;" edge="1" parent="1" source="T2fHyv0IfCqDmTKbyvzC-2" target="T2fHyv0IfCqDmTKbyvzC-1">
          <mxGeometry width="50" height="50" relative="1" as="geometry">
            <mxPoint x="80" y="1000" as="sourcePoint" />
            <mxPoint x="100" y="1010" as="targetPoint" />
          </mxGeometry>
        </mxCell>
        <mxCell id="z_X0r_UcDrxjalss_dkO-7" value="Food Received" style="text;html=1;align=center;verticalAlign=middle;resizable=0;points=[];autosize=1;strokeColor=none;fillColor=none;" vertex="1" parent="1">
          <mxGeometry x="120" y="968" width="100" height="30" as="geometry" />
        </mxCell>
        <mxCell id="z_X0r_UcDrxjalss_dkO-8" value="" style="rounded=0;whiteSpace=wrap;html=1;" vertex="1" parent="1">
          <mxGeometry x="750" y="520" width="10" height="600" as="geometry" />
        </mxCell>
        <mxCell id="z_X0r_UcDrxjalss_dkO-9" value="" style="endArrow=classic;html=1;rounded=0;exitX=1.267;exitY=0.416;exitDx=0;exitDy=0;exitPerimeter=0;" edge="1" parent="1" source="NBURtu0gtJk6Xqq7PXZP-4">
          <mxGeometry width="50" height="50" relative="1" as="geometry">
            <mxPoint x="580" y="770" as="sourcePoint" />
            <mxPoint x="750" y="770" as="targetPoint" />
          </mxGeometry>
        </mxCell>
        <mxCell id="z_X0r_UcDrxjalss_dkO-10" value="Restaurant is notified&lt;div&gt;&lt;br&gt;&lt;/div&gt;" style="text;html=1;align=center;verticalAlign=middle;resizable=0;points=[];autosize=1;strokeColor=none;fillColor=none;" vertex="1" parent="1">
          <mxGeometry x="565" y="743" width="140" height="40" as="geometry" />
        </mxCell>
        <mxCell id="z_X0r_UcDrxjalss_dkO-11" value="" style="endArrow=classic;html=1;rounded=0;exitX=0;exitY=0.5;exitDx=0;exitDy=0;entryX=1;entryY=0.5;entryDx=0;entryDy=0;" edge="1" parent="1" source="z_X0r_UcDrxjalss_dkO-8" target="NBURtu0gtJk6Xqq7PXZP-4">
          <mxGeometry width="50" height="50" relative="1" as="geometry">
            <mxPoint x="630" y="833" as="sourcePoint" />
            <mxPoint x="680" y="783" as="targetPoint" />
          </mxGeometry>
        </mxCell>
        <mxCell id="z_X0r_UcDrxjalss_dkO-12" value="Notifies zomato when order is ready" style="text;html=1;align=center;verticalAlign=middle;resizable=0;points=[];autosize=1;strokeColor=none;fillColor=none;" vertex="1" parent="1">
          <mxGeometry x="540" y="788" width="210" height="30" as="geometry" />
        </mxCell>
        <mxCell id="z_X0r_UcDrxjalss_dkO-14" value="" style="endArrow=classic;html=1;rounded=0;exitX=0.267;exitY=0.703;exitDx=0;exitDy=0;exitPerimeter=0;entryX=1.133;entryY=0.701;entryDx=0;entryDy=0;entryPerimeter=0;" edge="1" parent="1" source="z_X0r_UcDrxjalss_dkO-8" target="NBURtu0gtJk6Xqq7PXZP-4">
          <mxGeometry width="50" height="50" relative="1" as="geometry">
            <mxPoint x="600" y="950" as="sourcePoint" />
            <mxPoint x="650" y="900" as="targetPoint" />
          </mxGeometry>
        </mxCell>
        <mxCell id="z_X0r_UcDrxjalss_dkO-15" value="order sent through delivery partner&lt;div&gt;&lt;br&gt;&lt;/div&gt;" style="text;html=1;align=center;verticalAlign=middle;resizable=0;points=[];autosize=1;strokeColor=none;fillColor=none;" vertex="1" parent="1">
          <mxGeometry x="540" y="910" width="210" height="40" as="geometry" />
        </mxCell>
      </root>
    </mxGraphModel>
  </diagram>
</mxfile>
